<svg width="500" height="500" viewBox="0 0 500 500" fill="none" xmlns="http://www.w3.org/2000/svg">
<g clip-path="url(#clip0_44_10)">
<circle cx="250" cy="250" r="250" fill="black"/>
<g filter="url(#filter0_d_44_10)">
<path d="M273.671 73.3962C276.774 79.8969 280.148 85.954 283.8 92.1499C286.303 97.0721 288.767 102.014 291.208 106.968C297.838 120.331 304.592 133.611 311.58 146.79C316.873 156.8 322.145 166.792 326.917 177.063C330.546 184.847 334.617 192.321 338.796 199.821C342.269 206.128 345.439 212.568 348.621 219.027C357.306 236.565 357.306 236.565 366.331 253.93C370.925 262.569 375.101 271.391 379.302 280.226C381.455 284.67 383.741 289.049 386.066 293.405C390.886 302.584 395.219 311.935 399.537 321.359C409.715 343.312 424.627 360.082 444 374.614C444 378.543 428.068 376.8 424.083 376.81C422.065 376.818 420.046 376.826 417.966 376.835C413.686 376.848 409.406 376.857 405.126 376.86C398.532 376.871 391.94 376.917 385.346 376.963C381.205 376.972 377.063 376.979 372.921 376.983C370.927 377.001 368.932 377.019 366.877 377.038C352.675 376.994 352.675 376.994 357.881 365.931C363.593 353.315 362.553 345.95 356.087 333.981C354.987 331.925 353.888 329.869 352.755 327.751C351.696 325.796 350.637 323.84 349.547 321.825C348.037 318.972 346.532 316.117 345.032 313.259C344.296 311.861 343.559 310.463 342.8 309.023C335.128 294.394 327.541 279.727 320.203 264.927C315.752 255.979 311.073 247.196 306.245 238.446C301.313 229.357 296.622 220.144 291.899 210.945C289.212 205.729 286.496 200.533 283.742 195.353C279.812 187.93 276.075 180.418 272.34 172.895C267.232 162.63 261.941 152.505 256.381 142.478C254.645 139.324 252.999 136.119 251.389 132.899C248.32 137.782 245.667 142.591 243.055 147.717C241.718 150.181 240.381 152.645 239.004 155.183C232.473 167.597 226.606 180.339 220.657 193.038C217.117 200.525 213.443 207.925 209.718 215.323C208.652 217.464 207.586 219.606 206.488 221.813C200.823 233.19 195.116 244.53 189.143 255.749C185.609 262.546 182.22 269.412 178.813 276.272C168.447 297.042 157.93 317.103 143.971 335.717C137.895 349.896 140.942 361.146 147.675 374.614C147.675 379.952 128.344 377.394 123.552 377.345C120.664 377.319 120.664 377.319 117.717 377.292C113.647 377.253 109.577 377.212 105.506 377.168C99.2428 377.103 92.9794 377.052 86.7158 377.003C82.77 376.964 78.8242 376.923 74.8784 376.882C72.9889 376.868 71.0994 376.855 69.1527 376.841C56 376.678 56 376.678 56 374.614C59.0539 373.006 62.1443 371.467 65.2601 369.983C69.2403 368.683 69.2403 368.683 68.9642 366.279C69.9574 365.438 70.9505 364.598 71.9737 363.732C88.0475 349.349 98.2573 331.532 107.857 312.564C109.881 308.686 111.907 304.808 113.934 300.93C122.098 285.152 130.002 269.244 137.913 253.338C143.188 242.746 148.564 232.234 154.158 221.805C156.636 216.871 159.104 211.931 161.566 206.988C162.748 204.617 163.931 202.246 165.15 199.804C166.371 197.355 167.592 194.906 168.851 192.383C170.923 188.232 172.995 184.081 175.067 179.93C176.481 177.098 177.894 174.265 179.307 171.432C192.59 144.789 192.59 144.789 198.085 134.404C202.756 125.574 207.238 116.663 211.686 107.72C212.466 106.157 213.245 104.594 214.048 102.983C215.583 99.9038 217.118 96.8244 218.652 93.7446C221.841 87.3444 225.041 80.9498 228.239 74.5538C229.105 72.8097 229.972 71.0655 230.865 69.2685C252.097 26.5712 253.544 30.0415 273.671 73.3962Z" fill="url(#paint0_linear_44_10)"/>
</g>
</g>
<defs>
<filter id="filter0_d_44_10" x="24.5" y="7.5" width="451" height="402" filterUnits="userSpaceOnUse" color-interpolation-filters="sRGB">
<feFlood flood-opacity="0" result="BackgroundImageFix"/>
<feColorMatrix in="SourceAlpha" type="matrix" values="0 0 0 0 0 0 0 0 0 0 0 0 0 0 0 0 0 0 127 0" result="hardAlpha"/>
<feOffset/>
<feGaussianBlur stdDeviation="15.75"/>
<feComposite in2="hardAlpha" operator="out"/>
<feColorMatrix type="matrix" values="0 0 0 0 1 0 0 0 0 1 0 0 0 0 1 0 0 0 1 0"/>
<feBlend mode="normal" in2="BackgroundImageFix" result="effect1_dropShadow_44_10"/>
<feBlend mode="normal" in="SourceGraphic" in2="effect1_dropShadow_44_10" result="shape"/>
</filter>
<linearGradient id="paint0_linear_44_10" x1="250" y1="39" x2="250" y2="378" gradientUnits="userSpaceOnUse">
<stop stop-color="#F70000"/>
<stop offset="1"/>
</linearGradient>
<clipPath id="clip0_44_10">
<rect width="500" height="500" fill="white"/>
</clipPath>
</defs>
</svg>
